<mxfile host="65bd71144e">
    <diagram id="vCiOJYhpJCHS9LeYzo8w" name="Page-1">
        <mxGraphModel dx="1523" dy="634" grid="1" gridSize="10" guides="1" tooltips="1" connect="1" arrows="1" fold="1" page="1" pageScale="1" pageWidth="827" pageHeight="1169" math="0" shadow="0">
            <root>
                <mxCell id="0"/>
                <mxCell id="1" parent="0"/>
                <mxCell id="2" value="&lt;b&gt;&lt;font style=&quot;font-size: 38px&quot;&gt;FUNIX COMPANY&lt;/font&gt;&lt;/b&gt;" style="rounded=0;whiteSpace=wrap;html=1;" parent="1" vertex="1">
                    <mxGeometry x="160" y="20" width="560" height="60" as="geometry"/>
                </mxCell>
                <mxCell id="3" value="logo" style="rounded=0;whiteSpace=wrap;html=1;fontSize=38;" parent="1" vertex="1">
                    <mxGeometry x="40" y="140" width="120" height="60" as="geometry"/>
                </mxCell>
                <mxCell id="14" value="Nhan vien" style="rounded=1;whiteSpace=wrap;html=1;fontSize=25;fontColor=#99FFFF;" parent="1" vertex="1">
                    <mxGeometry x="220" y="140" width="120" height="60" as="geometry"/>
                </mxCell>
                <mxCell id="15" value="Phong ban" style="rounded=1;whiteSpace=wrap;html=1;fontSize=25;fontColor=#99FFFF;" parent="1" vertex="1">
                    <mxGeometry x="400" y="140" width="140" height="60" as="geometry"/>
                </mxCell>
                <mxCell id="16" value="Bang luong" style="rounded=1;whiteSpace=wrap;html=1;fontSize=25;fontColor=#99FFFF;" parent="1" vertex="1">
                    <mxGeometry x="600" y="140" width="140" height="60" as="geometry"/>
                </mxCell>
                <mxCell id="21" value="" style="dashed=0;outlineConnect=0;html=1;align=center;labelPosition=center;verticalLabelPosition=bottom;verticalAlign=top;shape=mxgraph.weblogos.google;fontSize=24;fontColor=#99FFFF;" parent="1" vertex="1">
                    <mxGeometry x="348" y="793" width="65.2" height="69.4" as="geometry"/>
                </mxCell>
                <mxCell id="22" value="" style="dashed=0;outlineConnect=0;html=1;align=center;labelPosition=center;verticalLabelPosition=bottom;verticalAlign=top;shape=mxgraph.weblogos.friendfeed;fillColor=#4172BB;fontSize=24;fontColor=#99FFFF;" parent="1" vertex="1">
                    <mxGeometry x="450" y="791.4" width="73.8" height="71" as="geometry"/>
                </mxCell>
                <mxCell id="24" value="" style="dashed=0;outlineConnect=0;html=1;align=center;labelPosition=center;verticalLabelPosition=bottom;verticalAlign=top;shape=mxgraph.weblogos.youtube_2;fillColor=#FF2626;gradientColor=#B5171F;fontSize=24;fontColor=#99FFFF;" parent="1" vertex="1">
                    <mxGeometry x="570" y="793" width="60" height="69.4" as="geometry"/>
                </mxCell>
                <mxCell id="26" value="" style="dashed=0;outlineConnect=0;html=1;align=center;labelPosition=center;verticalLabelPosition=bottom;verticalAlign=top;shape=mxgraph.weblogos.linkedin;fillColor=#0095DB;gradientColor=#006391;fontSize=24;fontColor=#99FFFF;" parent="1" vertex="1">
                    <mxGeometry x="680" y="796.8" width="57.400000000000006" height="60.6" as="geometry"/>
                </mxCell>
                <mxCell id="27" value="Our Address&lt;span style=&quot;white-space: pre&quot;&gt;&#9;&lt;/span&gt;" style="rounded=1;whiteSpace=wrap;html=1;fontSize=24;fontColor=#99FFFF;" parent="1" vertex="1">
                    <mxGeometry x="60" y="718" width="170" height="60" as="geometry"/>
                </mxCell>
                <mxCell id="35" value="address:" style="text;html=1;strokeColor=none;fillColor=none;align=center;verticalAlign=middle;whiteSpace=wrap;rounded=0;fontSize=24;fontColor=#99FFFF;" parent="1" vertex="1">
                    <mxGeometry x="60" y="817.1" width="60" height="30" as="geometry"/>
                </mxCell>
                <mxCell id="36" value="phone number:" style="text;html=1;align=center;verticalAlign=middle;resizable=0;points=[];autosize=1;strokeColor=none;fillColor=none;fontSize=24;fontColor=#99FFFF;" parent="1" vertex="1">
                    <mxGeometry x="32" y="873" width="180" height="30" as="geometry"/>
                </mxCell>
                <mxCell id="37" value="fax:" style="text;html=1;align=center;verticalAlign=middle;resizable=0;points=[];autosize=1;strokeColor=none;fillColor=none;fontSize=24;fontColor=#99FFFF;" parent="1" vertex="1">
                    <mxGeometry x="39" y="933" width="50" height="30" as="geometry"/>
                </mxCell>
                <mxCell id="38" value="mail:" style="text;html=1;align=center;verticalAlign=middle;resizable=0;points=[];autosize=1;strokeColor=none;fillColor=none;fontSize=24;fontColor=#99FFFF;" parent="1" vertex="1">
                    <mxGeometry x="30" y="988" width="70" height="30" as="geometry"/>
                </mxCell>
                <mxCell id="40" value="" style="rounded=1;whiteSpace=wrap;html=1;" vertex="1" parent="1">
                    <mxGeometry x="80" y="280" width="200" height="180" as="geometry"/>
                </mxCell>
                <mxCell id="41" value="&lt;h1&gt;&lt;span style=&quot;white-space: pre&quot;&gt;&#9;&lt;/span&gt;Ho Ten&lt;br&gt;&lt;/h1&gt;&lt;div&gt;&lt;ul&gt;&lt;li&gt;Ma nhan vien:&lt;/li&gt;&lt;li&gt;He so luong:&lt;/li&gt;&lt;li&gt;So ngay lam them:&lt;/li&gt;&lt;li&gt;Luong:&lt;/li&gt;&lt;/ul&gt;&lt;/div&gt;" style="text;html=1;strokeColor=none;fillColor=none;spacing=5;spacingTop=-20;whiteSpace=wrap;overflow=hidden;rounded=0;" vertex="1" parent="1">
                    <mxGeometry x="80" y="290" width="160" height="170" as="geometry"/>
                </mxCell>
                <mxCell id="42" value="" style="rounded=1;whiteSpace=wrap;html=1;" vertex="1" parent="1">
                    <mxGeometry x="323.8" y="280" width="200" height="180" as="geometry"/>
                </mxCell>
                <mxCell id="43" value="&lt;h1&gt;&lt;span style=&quot;white-space: pre&quot;&gt;&#9;&lt;/span&gt;Ho Ten&lt;br&gt;&lt;/h1&gt;&lt;div&gt;&lt;ul&gt;&lt;li&gt;Ma nhan vien:&lt;/li&gt;&lt;li&gt;He so luong:&lt;/li&gt;&lt;li&gt;So ngay lam them:&lt;/li&gt;&lt;li&gt;Luong:&lt;/li&gt;&lt;/ul&gt;&lt;/div&gt;" style="text;html=1;strokeColor=none;fillColor=none;spacing=5;spacingTop=-20;whiteSpace=wrap;overflow=hidden;rounded=0;" vertex="1" parent="1">
                    <mxGeometry x="323.8" y="290" width="160" height="170" as="geometry"/>
                </mxCell>
                <mxCell id="44" value="" style="rounded=1;whiteSpace=wrap;html=1;" vertex="1" parent="1">
                    <mxGeometry x="570" y="285" width="200" height="180" as="geometry"/>
                </mxCell>
                <mxCell id="45" value="&lt;h1&gt;&lt;span style=&quot;white-space: pre&quot;&gt;&#9;&lt;/span&gt;Ho Ten&lt;br&gt;&lt;/h1&gt;&lt;div&gt;&lt;ul&gt;&lt;li&gt;Ma nhan vien:&lt;/li&gt;&lt;li&gt;He so luong:&lt;/li&gt;&lt;li&gt;So ngay lam them:&lt;/li&gt;&lt;li&gt;Luong:&lt;/li&gt;&lt;/ul&gt;&lt;/div&gt;" style="text;html=1;strokeColor=none;fillColor=none;spacing=5;spacingTop=-20;whiteSpace=wrap;overflow=hidden;rounded=0;" vertex="1" parent="1">
                    <mxGeometry x="570" y="295" width="160" height="170" as="geometry"/>
                </mxCell>
                <mxCell id="46" value="" style="rounded=1;whiteSpace=wrap;html=1;" vertex="1" parent="1">
                    <mxGeometry x="78.8" y="475" width="200" height="180" as="geometry"/>
                </mxCell>
                <mxCell id="47" value="&lt;h1&gt;&lt;span style=&quot;white-space: pre&quot;&gt;&#9;&lt;/span&gt;Ho Ten&lt;br&gt;&lt;/h1&gt;&lt;div&gt;&lt;ul&gt;&lt;li&gt;Ma nhan vien:&lt;/li&gt;&lt;li&gt;He so luong:&lt;/li&gt;&lt;li&gt;So ngay lam them:&lt;/li&gt;&lt;li&gt;Luong:&lt;/li&gt;&lt;/ul&gt;&lt;/div&gt;" style="text;html=1;strokeColor=none;fillColor=none;spacing=5;spacingTop=-20;whiteSpace=wrap;overflow=hidden;rounded=0;" vertex="1" parent="1">
                    <mxGeometry x="78.8" y="485" width="160" height="170" as="geometry"/>
                </mxCell>
                <mxCell id="48" value="" style="rounded=1;whiteSpace=wrap;html=1;" vertex="1" parent="1">
                    <mxGeometry x="322.6" y="475" width="200" height="180" as="geometry"/>
                </mxCell>
                <mxCell id="49" value="&lt;h1&gt;&lt;span style=&quot;white-space: pre&quot;&gt;&#9;&lt;/span&gt;Ho Ten&lt;br&gt;&lt;/h1&gt;&lt;div&gt;&lt;ul&gt;&lt;li&gt;Ma nhan vien:&lt;/li&gt;&lt;li&gt;He so luong:&lt;/li&gt;&lt;li&gt;So ngay lam them:&lt;/li&gt;&lt;li&gt;Luong:&lt;/li&gt;&lt;/ul&gt;&lt;/div&gt;" style="text;html=1;strokeColor=none;fillColor=none;spacing=5;spacingTop=-20;whiteSpace=wrap;overflow=hidden;rounded=0;" vertex="1" parent="1">
                    <mxGeometry x="322.6" y="485" width="160" height="170" as="geometry"/>
                </mxCell>
                <mxCell id="50" value="" style="rounded=1;whiteSpace=wrap;html=1;" vertex="1" parent="1">
                    <mxGeometry x="568.8" y="480" width="200" height="180" as="geometry"/>
                </mxCell>
                <mxCell id="51" value="&lt;h1&gt;&lt;span style=&quot;white-space: pre&quot;&gt;&#9;&lt;/span&gt;Ho Ten&lt;br&gt;&lt;/h1&gt;&lt;div&gt;&lt;ul&gt;&lt;li&gt;Ma nhan vien:&lt;/li&gt;&lt;li&gt;He so luong:&lt;/li&gt;&lt;li&gt;So ngay lam them:&lt;/li&gt;&lt;li&gt;Luong:&lt;/li&gt;&lt;/ul&gt;&lt;/div&gt;" style="text;html=1;strokeColor=none;fillColor=none;spacing=5;spacingTop=-20;whiteSpace=wrap;overflow=hidden;rounded=0;" vertex="1" parent="1">
                    <mxGeometry x="568.8" y="490" width="160" height="170" as="geometry"/>
                </mxCell>
                <mxCell id="54" value="" style="shape=flexArrow;endArrow=classic;html=1;" edge="1" parent="1">
                    <mxGeometry width="50" height="50" relative="1" as="geometry">
                        <mxPoint x="600" y="200" as="sourcePoint"/>
                        <mxPoint x="470" y="280" as="targetPoint"/>
                    </mxGeometry>
                </mxCell>
            </root>
        </mxGraphModel>
    </diagram>
</mxfile>